# xmcd
# 
# Track frame offsets:
#     150
#     17190
#     31570
#     49060
#     68187
#     88982
#     107795
#     124640
#     138707
#     152505
#     177187
#     192125
#     206250
#     220285
#     237497
#     260392
#     271097
#     286020
# 
# Disc length: 3982
# 
# Revision: 5
# Processed by: cddbd v1.5.2PL0 Copyright (c) Steve Scherf et al.
# Submitted via: BonkEnc v1.0
# 
DISCID=fb0f8c12
DTITLE=Beth Carvalho - Pagode de Mesa
DYEAR=0
DGENRE=Samba
TTITLE0=Bar Da Neguinha
TTITLE1=Samba De Arerê
TTITLE2=Amor E Festança
TTITLE3=Com Toda Essa Gente
TTITLE4=Lucidez
TTITLE5=Meu Sangue É Brasil
TTITLE6=Depois De Madureira
TTITLE7=Acreditar
TTITLE8=Olhar Bandido
TTITLE9=Ainda É Tempo Pra Ser Feliz
TTITLE10=Alvorada_Juízo Final
TTITLE11=Pedaço De Ilusão
TTITLE12=Demoro
TTITLE13=Só Joga Conversa Fora
TTITLE14=Malandro Sou Eu
TTITLE15=Argumento
TTITLE16=O Quitandeiro
TTITLE17=Coisinha Do Pai
EXTD=
EXTT0=
EXTT1=
EXTT2=
EXTT3=
EXTT4=
EXTT5=
EXTT6=
EXTT7=
EXTT8=
EXTT9=
EXTT10=
EXTT11=
EXTT12=
EXTT13=
EXTT14=
EXTT15=
EXTT16=
EXTT17=
PLAYORDER=
